<svg width="100%" height="100%" viewBox="0 0 800 600" version="1.1" xmlns="http://www.w3.org/2000/svg" xmlns:xlink="http://www.w3.org/1999/xlink" xml:space="preserve" xmlns:serif="http://www.serif.com/" style="fill-rule:evenodd;clip-rule:evenodd;stroke-miterlimit:10;"><g><path d="M740.471,268.274l-5.589,-4.89l-13.156,-38.188l3.143,-12.108c0,-0 -2.91,-8.034 -18.162,-13.389c-15.252,-5.472 -32.949,-8.267 -32.949,-8.267l-132.145,17.115l-6.403,-3.143l-23.519,1.63l0.117,5.705l-205.028,13.156c0,-0 -4.541,14.204 -8.848,15.485c-4.308,1.28 -34.114,3.609 -34.114,3.609c0,-0 -5.937,-4.192 -4.657,-12.109l1.281,-7.917l-9.547,3.144l-64.268,4.075l-9.081,3.26l-2.911,5.472c0,-0 -37.373,4.657 -47.735,4.657c0,-0 -30.271,20.957 -32.25,23.285c0,0 13.04,-2.095 14.204,-0.116c1.164,1.863 -5.588,18.395 -12.69,24.566c-6.986,6.171 -64.268,60.309 -66.713,89.765c-0,0 0.349,7.219 9.081,7.568c0,-0 7.102,-0.233 10.246,-3.609c3.027,-3.377 27.244,-61.939 94.771,-61.823c0,-0 84.294,-0.349 95.587,79.869c-0,-0 5.123,38.887 5.123,56.351l300.381,0.465c0,0 -13.738,-131.446 111.77,-130.98c0,-0 79.403,8.965 80.917,79.869c-0,-0 20.84,1.863 25.381,-8.965l3.959,-78.821l0.232,-11.41l-26.428,-43.311Z" style="fill:#fff;fill-rule:nonzero;"/><path d="M555.934,86.881l0.116,119.803l117.591,-15.252l6.52,0.815l17.581,-13.738c-0,0 5.821,-0.699 3.376,-14.088c-2.445,-13.272 -16.067,-71.835 -16.067,-71.835l-129.117,-5.705Z" style="fill:none;fill-rule:nonzero;stroke:#231815;stroke-width:1.26px;"/><path d="M743.381,215.649l-25.847,-120.851l16.3,-14.204l-0.466,-5.356c0,0 -120.036,-10.129 -226.683,-7.218c-106.647,2.91 -133.658,10.013 -144.369,17.58l-115.496,67.179c0,-0 -101.99,50.645 -119.105,67.411l-21.306,12.341c0,0 -6.636,6.054 -8.615,8.383c-2.096,2.328 -0.815,5.356 -0.815,5.356l29.688,-0.699l47.736,-4.657l2.91,-5.472l9.082,-3.26c-0,-0 35.626,-30.97 60.192,-47.735c24.566,-16.649 126.44,-74.513 126.44,-74.513c-0,-0 50.879,-18.047 80.567,-19.095c29.806,-1.047 70.672,-3.609 70.672,-3.609l-5.24,118.872l16.184,-0.582l6.403,3.144l14.437,-1.863l-0.116,-119.804l129.234,5.822c-0,-0 13.622,58.446 16.067,71.835c2.445,13.273 -3.377,14.088 -3.377,14.088l-17.58,13.738l-2.678,-0.349l-0,0.233c6.054,1.164 18.163,3.609 29.107,7.568c15.252,5.472 18.162,13.389 18.162,13.389l-3.143,12.108l13.156,38.188l5.472,4.774c1.979,-0.233 3.726,-0.815 4.075,-1.863l3.144,-8.732l0.815,-33.065l-5.007,-9.082Z" style="fill:#fff;fill-rule:nonzero;stroke:#231815;stroke-width:1.26px;"/><path d="M126.784,245.687l-29.689,0.699c0,-0 -39.352,28.175 -44.475,42.845c-5.123,14.553 -11.759,18.046 -10.129,44.009l2.212,15.602l10.828,-13.739c-0,0 -6.986,-10.362 -6.171,-16.882c0.931,-6.636 4.308,-21.073 10.711,-26.429c6.404,-5.355 7.684,-17.929 34.579,-22.703l32.134,-23.402Z" style="fill:none;fill-rule:nonzero;stroke:#231815;stroke-width:1.26px;"/><path d="M740.471,268.274l-5.589,-4.89l-13.156,-38.188l3.143,-12.108c0,-0 -2.91,-8.034 -18.162,-13.389c-15.252,-5.472 -32.949,-8.267 -32.949,-8.267l-132.145,17.115l-6.403,-3.143l-23.519,1.63l0.117,5.705l-205.028,13.156c0,-0 -4.541,14.204 -8.848,15.485c-4.308,1.28 -34.114,3.609 -34.114,3.609c0,-0 -5.937,-4.192 -4.657,-12.109l1.281,-7.917l-9.547,3.144l-64.268,4.075l-9.081,3.26l-2.911,5.472c0,-0 -37.373,4.657 -47.735,4.657c0,-0 -30.271,20.957 -32.25,23.285c0,0 13.04,-2.095 14.204,-0.116c1.164,1.863 -5.588,18.395 -12.69,24.566c-6.986,6.171 -64.268,60.309 -66.713,89.765c-0,0 0.349,7.219 9.081,7.568c0,-0 7.102,-0.233 10.246,-3.609c3.027,-3.377 27.244,-61.939 94.771,-61.823c0,-0 84.294,-0.349 95.587,79.869c-0,-0 5.123,38.887 5.123,56.351l300.381,0.465c0,0 -13.738,-131.446 111.77,-130.98c0,-0 79.403,8.965 80.917,79.869c-0,-0 20.84,1.863 25.381,-8.965l3.959,-78.821l0.232,-11.41l-26.428,-43.311Z" style="fill:none;fill-rule:nonzero;stroke:#231815;stroke-width:1.26px;"/><path d="M734.882,263.384c0,0 -4.308,4.657 -1.164,14.67c3.143,10.013 25.614,90.231 23.518,115.845l0.466,9.081l-9.664,7.568" style="fill:none;fill-rule:nonzero;stroke:#231815;stroke-width:1.26px;"/><path d="M62.37,400.042c11.018,-44.273 55.907,-71.271 100.18,-60.253c44.272,11.018 71.271,55.907 60.253,100.179c-11.018,44.273 -55.907,71.271 -100.18,60.253c-44.272,-11.018 -71.271,-55.907 -60.253,-100.179Z" style="stroke:#231815;stroke-width:1.26px;"/><path d="M135.241,357.19c34.655,-4.055 66.082,20.789 70.136,55.443c4.055,34.655 -20.789,66.082 -55.443,70.137c-34.655,4.054 -66.082,-20.79 -70.136,-55.444c-4.055,-34.655 20.789,-66.082 55.443,-70.136Z" style="fill:#fff;stroke:#231815;stroke-width:1.26px;"/><path d="M589.305,373.084c32.26,-32.26 84.642,-32.26 116.902,0c32.26,32.26 32.26,84.642 0,116.902c-32.26,32.26 -84.642,32.26 -116.902,0c-32.26,-32.26 -32.26,-84.642 -0,-116.902Z" style="stroke:#231815;stroke-width:1.26px;"/><circle cx="647.795" cy="431.505" r="63.22" style="fill:#fff;stroke:#231815;stroke-width:1.26px;"/><path d="M568.624,462.009l-23.984,-0" style="fill:none;fill-rule:nonzero;stroke:#231815;stroke-width:1.26px;"/><path d="M253.922,462.009l-38.304,-0" style="fill:none;fill-rule:nonzero;stroke:#231815;stroke-width:1.26px;"/><path d="M72.063,466.549c0,0 -14.437,-2.328 -18.395,-9.43c-3.959,-7.102 -24.333,-74.048 -24.333,-74.048" style="fill:none;fill-rule:nonzero;stroke:#231815;stroke-width:1.26px;"/><path d="M260.326,224.963c-0,0 2.91,-3.609 1.746,-6.287c-1.281,-2.678 -7.335,-13.272 -3.027,-21.422c4.308,-8.267 18.163,-11.061 25.847,-12.109c7.684,-1.048 24.449,-4.075 25.032,6.637c0.582,10.711 1.397,27.476 -7.219,29.805c-8.616,2.329 -14.088,4.657 -18.978,3.609c0,0 5.589,12.574 1.281,17.814" style="fill:none;fill-rule:nonzero;stroke:#231815;stroke-width:1.26px;"/><path d="M492.597,355.012c-8.964,3.726 -204.911,28.874 -204.911,28.874l8.848,-11.293c0,-0 5.356,-2.445 12.807,-3.493c7.452,-1.048 199.789,-32.832 199.789,-32.832c0,-0 -7.568,14.902 -16.533,18.744Zm17.93,-100.476l-54.837,5.705l-0.466,-0c-2.095,-0 -3.842,-1.514 -3.958,-3.609c-0.233,-2.213 1.397,-4.192 3.609,-4.425l54.837,-5.705c2.212,-0.232 4.192,1.397 4.424,3.61c0.233,2.212 -1.397,4.191 -3.609,4.424Z" style="fill-rule:nonzero;stroke:#231815;stroke-width:1.26px;"/></g><path d="M524.382,87.463l31.552,0l0.116,119.221l-14.437,1.863l-6.403,-3.027l-16.184,0.582l6.287,-112.352l-0.931,-6.287Z" style="fill:#231815;fill-rule:nonzero;stroke:#231815;stroke-width:1.26px;"/><path d="M685.168,92.702l32.366,1.98l25.847,120.967l5.007,8.849l-0.815,33.065l-3.144,8.732l-3.958,1.979l-5.589,-4.89l-13.156,-38.188l3.143,-11.992l-9.78,-9.663l-34.811,-11.177l23.052,-18.396l-18.162,-81.266Z" style="fill:#231815;fill-rule:nonzero;stroke:#231815;stroke-width:1.26px;"/><g><g id="XMLID_172_"><path id="XMLID_229_" d="M513.554,317.174c-0.698,-1.63 -2.445,-2.445 -4.075,-1.863c-1.63,0.582 -2.445,2.445 -1.746,4.191c0.699,1.63 2.445,2.445 4.075,1.863c1.63,-0.699 2.445,-2.561 1.746,-4.191Z" style="fill:#7580bb;fill-rule:nonzero;"/><path id="XMLID_228_" d="M520.074,334.055c-0.698,-1.63 -2.445,-2.445 -4.075,-1.862c-1.63,0.582 -2.445,2.445 -1.746,4.191c0.698,1.63 2.445,2.445 4.075,1.863c1.63,-0.699 2.445,-2.562 1.746,-4.192Z" style="fill:#7580bb;fill-rule:nonzero;"/><path id="XMLID_227_" d="M525.081,322.413c-0.699,-1.63 -2.445,-2.445 -4.075,-1.863c-1.63,0.582 -2.445,2.445 -1.747,4.191c0.699,1.63 2.445,2.445 4.075,1.863c1.63,-0.698 2.445,-2.561 1.747,-4.191Z" style="fill:#7580bb;fill-rule:nonzero;"/><path id="XMLID_226_" d="M530.087,310.77c-0.699,-1.63 -2.445,-2.445 -4.075,-1.863c-1.63,0.582 -2.445,2.445 -1.746,4.192c0.698,1.746 2.445,2.445 4.075,1.862c1.63,-0.698 2.445,-2.561 1.746,-4.191Z" style="fill:#7580bb;fill-rule:nonzero;"/><path id="XMLID_225_" d="M526.711,350.937c-0.699,-1.63 -2.445,-2.445 -4.075,-1.862c-1.63,0.582 -2.445,2.444 -1.747,4.191c0.699,1.63 2.445,2.445 4.075,1.863c1.63,-0.582 2.329,-2.562 1.747,-4.192Z" style="fill:#7580bb;fill-rule:nonzero;"/><path id="XMLID_224_" d="M531.601,339.295c-0.699,-1.63 -2.445,-2.445 -4.075,-1.863c-1.63,0.582 -2.445,2.445 -1.747,4.191c0.699,1.63 2.445,2.445 4.075,1.863c1.63,-0.699 2.445,-2.561 1.747,-4.191Z" style="fill:#7580bb;fill-rule:nonzero;"/><path id="XMLID_189_" d="M536.607,327.652c-0.699,-1.63 -2.445,-2.445 -4.075,-1.863c-1.63,0.582 -2.445,2.445 -1.746,4.192c0.698,1.629 2.444,2.444 4.074,1.862c1.63,-0.698 2.445,-2.561 1.747,-4.191Z" style="fill:#7580bb;fill-rule:nonzero;"/><path id="XMLID_188_" d="M541.613,316.009c-0.698,-1.63 -2.445,-2.445 -4.075,-1.863c-1.63,0.583 -2.445,2.445 -1.746,4.192c0.698,1.63 2.445,2.445 4.075,1.863c1.63,-0.699 2.445,-2.562 1.746,-4.192Z" style="fill:#7580bb;fill-rule:nonzero;"/><path id="XMLID_187_" d="M546.62,304.367c-0.699,-1.63 -2.445,-2.445 -4.075,-1.863c-1.63,0.582 -2.445,2.445 -1.747,4.191c0.699,1.63 2.445,2.445 4.075,1.863c1.63,-0.699 2.329,-2.561 1.747,-4.191Z" style="fill:#7580bb;fill-rule:nonzero;"/><path id="XMLID_186_" d="M543.243,344.534c-0.698,-1.63 -2.445,-2.445 -4.075,-1.863c-1.63,0.582 -2.445,2.445 -1.746,4.191c0.698,1.63 2.445,2.445 4.075,1.863c1.513,-0.698 2.328,-2.561 1.746,-4.191Z" style="fill:#7580bb;fill-rule:nonzero;"/><path id="XMLID_185_" d="M548.133,332.891c-0.698,-1.63 -2.445,-2.445 -4.075,-1.863c-1.63,0.582 -2.445,2.445 -1.746,4.192c0.698,1.63 2.445,2.445 4.075,1.863c1.63,-0.699 2.445,-2.562 1.746,-4.192Z" style="fill:#7580bb;fill-rule:nonzero;"/><path id="XMLID_184_" d="M553.14,321.248c-0.699,-1.629 -2.445,-2.444 -4.075,-1.862c-1.63,0.582 -2.445,2.445 -1.747,4.191c0.699,1.63 2.445,2.445 4.075,1.863c1.63,-0.699 2.445,-2.562 1.747,-4.192Z" style="fill:#7580bb;fill-rule:nonzero;"/><path id="XMLID_183_" d="M558.146,309.606c-0.699,-1.63 -2.445,-2.445 -4.075,-1.863c-1.63,0.582 -2.445,2.445 -1.746,4.191c0.698,1.63 2.444,2.445 4.074,1.863c1.63,-0.698 2.329,-2.561 1.747,-4.191Z" style="fill:#7580bb;fill-rule:nonzero;"/><path id="XMLID_182_" d="M563.152,297.963c-0.698,-1.63 -2.445,-2.445 -4.075,-1.863c-1.63,0.582 -2.445,2.445 -1.746,4.192c0.698,1.63 2.445,2.445 4.075,1.862c1.513,-0.698 2.328,-2.561 1.746,-4.191Z" style="fill:#7580bb;fill-rule:nonzero;"/><path id="XMLID_181_" d="M559.659,338.13c-0.698,-1.63 -2.445,-2.445 -4.075,-1.862c-1.63,0.582 -2.444,2.445 -1.746,4.191c0.699,1.63 2.445,2.445 4.075,1.863c1.63,-0.699 2.445,-2.562 1.746,-4.192Z" style="fill:#7580bb;fill-rule:nonzero;"/><path id="XMLID_180_" d="M564.666,326.488c-0.699,-1.63 -2.445,-2.445 -4.075,-1.863c-1.63,0.582 -2.445,2.445 -1.747,4.191c0.699,1.63 2.445,2.445 4.075,1.863c1.63,-0.698 2.445,-2.561 1.747,-4.191Z" style="fill:#7580bb;fill-rule:nonzero;"/><path id="XMLID_179_" d="M569.672,314.845c-0.698,-1.63 -2.445,-2.445 -4.075,-1.863c-1.63,0.582 -2.445,2.445 -1.746,4.192c0.698,1.63 2.445,2.445 4.075,1.862c1.63,-0.698 2.328,-2.561 1.746,-4.191Z" style="fill:#7580bb;fill-rule:nonzero;"/><path id="XMLID_178_" d="M574.678,303.202c-0.698,-1.63 -2.444,-2.445 -4.074,-1.863c-1.63,0.583 -2.445,2.445 -1.747,4.192c0.699,1.63 2.445,2.445 4.075,1.863c1.514,-0.699 2.329,-2.562 1.746,-4.192Z" style="fill:#7580bb;fill-rule:nonzero;"/><path id="XMLID_177_" d="M579.685,291.56c-0.699,-1.63 -2.445,-2.445 -4.075,-1.863c-1.63,0.582 -2.445,2.445 -1.746,4.191c0.698,1.63 2.444,2.445 4.074,1.863c1.514,-0.699 2.329,-2.561 1.747,-4.191Z" style="fill:#7580bb;fill-rule:nonzero;"/><path id="XMLID_176_" d="M576.192,331.727c-0.699,-1.63 -2.445,-2.445 -4.075,-1.863c-1.63,0.582 -2.445,2.445 -1.746,4.191c0.698,1.63 2.445,2.445 4.075,1.863c1.63,-0.698 2.445,-2.561 1.746,-4.191Z" style="fill:#7580bb;fill-rule:nonzero;"/><path id="XMLID_175_" d="M581.198,320.084c-0.698,-1.63 -2.445,-2.445 -4.075,-1.863c-1.63,0.583 -2.445,2.445 -1.746,4.192c0.699,1.63 2.445,2.445 4.075,1.863c1.63,-0.699 2.445,-2.562 1.746,-4.192Z" style="fill:#7580bb;fill-rule:nonzero;"/><path id="XMLID_174_" d="M586.205,308.442c-0.699,-1.63 -2.445,-2.445 -4.075,-1.863c-1.63,0.582 -2.445,2.445 -1.747,4.191c0.699,1.63 2.445,2.445 4.075,1.863c1.63,-0.699 2.329,-2.562 1.747,-4.191Z" style="fill:#7580bb;fill-rule:nonzero;"/><path id="XMLID_173_" d="M592.725,325.207c-0.699,-1.63 -2.445,-2.445 -4.075,-1.863c-1.63,0.582 -2.445,2.445 -1.747,4.192c0.699,1.63 2.445,2.445 4.075,1.862c1.63,-0.582 2.445,-2.445 1.747,-4.191Z" style="fill:#7580bb;fill-rule:nonzero;"/></g><g><path d="M602.505,289.93c-0,-0.35 -0.35,-0.583 -0.583,-0.583l-7.451,0.583c-0.116,-0 -0.349,0.116 -0.349,0.232c-0.117,0.117 -0.117,0.233 -0.117,0.466l0.466,6.054c0.233,2.562 -1.63,4.657 -4.191,4.89c-2.562,0.233 -4.657,-1.63 -4.89,-4.191l-4.308,-51.694c-0.233,-2.445 1.63,-4.657 4.191,-4.89c1.165,-0.116 2.445,0.233 3.377,1.048c0.931,0.815 1.513,1.863 1.63,3.144l0.582,6.985c-0,0.117 0.116,0.35 0.233,0.35c0.116,0.116 0.233,0.116 0.465,0.116l7.452,-0.582c0.349,-0 0.582,-0.349 0.582,-0.582l-0.582,-6.986c-0.35,-3.493 -1.98,-6.753 -4.657,-8.965c-2.678,-2.328 -6.055,-3.376 -9.664,-3.027c-3.493,0.233 -6.636,1.98 -8.965,4.657c-2.328,2.678 -3.376,6.055 -3.027,9.547l4.308,51.694c0.582,6.52 5.821,11.643 12.341,12.108l1.863,0c3.493,-0.349 6.753,-1.979 8.965,-4.657c2.329,-2.678 3.376,-6.054 3.027,-9.663l-0.698,-6.054Z" style="fill:#034ea1;fill-rule:nonzero;"/><path d="M339.03,313.564c0,-0.349 -0.349,-0.582 -0.582,-0.582l-7.451,0.582c-0.117,0 -0.349,0.117 -0.349,0.233c-0.117,0.117 -0.117,0.233 -0.117,0.466l0.466,6.054c0.233,2.561 -1.63,4.657 -4.192,4.89c-2.445,0.233 -4.657,-1.63 -4.889,-4.191l-4.308,-51.694c-0.233,-2.561 1.63,-4.657 4.191,-4.89c1.164,-0.116 2.445,0.233 3.376,1.048c0.932,0.815 1.514,1.863 1.63,3.143l0.583,6.986c-0,0.117 0.116,0.349 0.232,0.349c0.117,0.117 0.233,0.117 0.466,0.117l7.451,-0.582c0.35,-0 0.583,-0.35 0.583,-0.582l-0.583,-6.986c-0.349,-3.493 -1.979,-6.753 -4.657,-8.965c-2.677,-2.328 -6.054,-3.376 -9.663,-3.027c-7.219,0.582 -12.691,6.986 -11.992,14.204l4.308,51.694c0.582,6.52 5.821,11.642 12.341,12.108l1.863,0c3.493,-0.349 6.753,-1.979 8.965,-4.657c2.328,-2.678 3.376,-6.054 3.027,-9.663l-0.699,-6.055Z" style="fill:#74ccd6;fill-rule:nonzero;"/><path d="M621.599,228.689l-7.452,0.582c-0.116,0 -0.349,0.117 -0.349,0.233c-0.116,0.116 -0.116,0.233 -0.116,0.466l6.403,76.842c0,0.349 0.233,0.582 0.582,0.582l7.451,-0.582c0.117,-0 0.35,-0.117 0.35,-0.233c0.116,-0.117 0.116,-0.233 0.116,-0.466l-6.403,-76.842c-0,-0.349 -0.35,-0.582 -0.582,-0.582Z" style="fill:#e96717;fill-rule:nonzero;"/><path d="M711.946,221.587c-0,-0.233 -0,-0.349 -0.117,-0.466c-0.116,-0.116 -0.349,-0.233 -0.465,-0.233l-7.801,0.699c-0.233,-0 -0.466,0.233 -0.466,0.466l-5.821,24.682l-9.78,-23.402c-0.116,-0.232 -0.349,-0.349 -0.582,-0.349l-7.801,0.699c-0.232,-0 -0.349,0.116 -0.465,0.233c-0.117,0.116 -0.117,0.349 -0,0.582l15.601,37.256l3.144,38.305c-0,0.116 0.116,0.349 0.232,0.349c0.117,0.116 0.233,0.116 0.35,0.116l7.451,-0.582c0.349,0 0.582,-0.349 0.582,-0.582l-3.143,-38.304l9.081,-39.469Z" style="fill:#ffc800;fill-rule:nonzero;"/><path d="M664.909,225.313c-0.116,-0.117 -0.232,-0.117 -0.465,-0.117l-24.916,2.096c-0.349,-0 -0.582,0.349 -0.582,0.582l0.582,7.451c0,0.117 0.117,0.35 0.233,0.35c0.117,0.116 0.233,0.116 0.466,0.116l7.917,-0.698l5.705,68.691c-0,0.35 0.233,0.583 0.582,0.583l7.451,-0.583c0.117,0 0.35,-0.116 0.35,-0.232c0.116,-0.117 0.116,-0.233 0.116,-0.466l-5.705,-68.692l8.383,-0.699c0.349,0 0.582,-0.349 0.582,-0.582l-0.582,-7.451c0.116,-0.116 -0,-0.233 -0.117,-0.349Z" style="fill:#7580bb;fill-rule:nonzero;"/><g><path d="M293.973,328.351c-0.116,-0.117 -0.233,-0.117 -0.466,-0.117l-12.108,1.048l-5.006,-60.775l12.108,-1.048c0.349,0 0.582,-0.349 0.582,-0.582l-0.582,-7.451c-0,-0.117 -0.116,-0.35 -0.233,-0.35c-0.116,-0.116 -0.233,-0.116 -0.466,-0.116l-20.141,1.63c-0.117,0 -0.35,0.116 -0.35,0.233c-0.116,0.116 -0.116,0.233 -0.116,0.466l6.403,76.841c0,0.35 0.233,0.583 0.582,0.583l20.142,-1.63c0.117,-0 0.35,-0.117 0.35,-0.233c0.116,-0.117 0.116,-0.233 0.116,-0.466l-0.582,-7.451c-0,-0.35 -0.117,-0.466 -0.233,-0.582Z" style="fill:#034ea1;fill-rule:nonzero;"/><path d="M284.659,296.566l0.582,7.451c0,0.117 0.116,0.35 0.233,0.35c0.116,0.116 0.233,0.116 0.349,0.116l0.117,-0l5.937,-0.582c0.35,-0 0.582,-0.349 0.466,-0.582l-0.582,-7.452c-0,-0.116 -0.116,-0.349 -0.233,-0.349c-0.116,-0.116 -0.233,-0.116 -0.466,-0.116l-5.937,0.582c-0.233,-0 -0.466,0.349 -0.466,0.582Z" style="fill:#034ea1;fill-rule:nonzero;"/></g><path d="M381.293,263.734c-0.582,-7.219 -6.985,-12.691 -14.204,-11.992c-7.218,0.582 -12.69,6.985 -11.992,14.204l4.308,51.693c0.582,6.52 5.821,11.643 12.341,12.109l1.863,-0c7.219,-0.582 12.691,-6.986 11.992,-14.204l-4.308,-51.81Zm-4.308,52.392c0.233,2.561 -1.629,4.657 -4.191,4.89c-1.164,0.116 -2.445,-0.233 -3.376,-1.048c-0.932,-0.815 -1.514,-1.863 -1.63,-3.144l-4.308,-51.693c-0.116,-1.165 0.233,-2.445 1.048,-3.377c0.815,-0.931 1.863,-1.513 3.143,-1.63l0.699,0c2.212,0.117 4.075,1.98 4.308,4.192l4.307,51.81Z" style="fill:#7580bb;fill-rule:nonzero;"/></g><g><path d="M145.008,271.362l-6.842,0.612l1.005,11.248l6.842,-0.611l-1.005,-11.249Z" style="fill:#7580bb;"/><path d="M158.165,270.199l-6.842,0.612l1.006,11.248l6.841,-0.611l-1.005,-11.249Z" style="fill:#034ea1;"/><path d="M173.765,268.801l-6.842,0.612l1.006,11.248l6.841,-0.612l-1.005,-11.248Z" style="fill:#e96717;"/><path d="M187.381,267.522l-6.841,0.611l1.005,11.249l6.842,-0.612l-1.006,-11.248Z" style="fill:#ffc800;"/><path d="M202.169,266.233l-6.841,0.611l1.005,11.249l6.842,-0.612l-1.006,-11.248Z" style="fill:#74ccd6;"/><path d="M216.255,264.951l-6.842,0.611l1.005,11.248l6.842,-0.611l-1.005,-11.248Z" style="fill:#7580bb;"/><path d="M230.927,263.673l-6.842,0.612l1.006,11.248l6.842,-0.611l-1.006,-11.249Z" style="fill:#034ea1;"/><path d="M131.263,272.521l-6.842,0.611l1.006,11.249l6.842,-0.612l-1.006,-11.248Z" style="fill:#74ccd6;"/><g><g><path d="M130.51,272.931c-0,-0.116 -0,-0.116 0.116,-0.233c-0,-0.116 0.116,-0.116 0.233,-0.116l4.308,-0.349l1.397,-0c0.465,0.116 0.931,0.233 1.28,0.465c0.35,0.233 0.699,0.466 0.932,0.932c0.233,0.349 0.466,0.815 0.466,1.397c-0,0.466 -0,1.048 -0.233,1.397c-0.233,0.466 -0.466,0.815 -0.932,1.048c0.582,0.233 0.932,0.466 1.281,0.931c0.349,0.35 0.466,0.815 0.582,1.397c0,0.583 0,1.165 -0.233,1.514c-0.233,0.466 -0.465,0.815 -0.815,1.048c-0.349,0.233 -0.815,0.466 -1.28,0.698c-0.466,0.117 -0.932,0.233 -1.514,0.35l-4.308,0.349c-0.116,-0 -0.116,-0 -0.233,-0.116c0,-0 -0.116,-0.117 -0.116,-0.233l-0.931,-10.479Zm2.794,3.959l1.979,-0.233c0.233,-0 0.349,-0 0.582,-0.116c0.117,-0 0.349,-0.117 0.466,-0.233c0.116,-0.117 0.233,-0.233 0.349,-0.35c0.117,-0.116 0.117,-0.349 0.117,-0.582c-0,-0.233 -0.117,-0.349 -0.117,-0.582c-0.116,-0.116 -0.233,-0.233 -0.349,-0.349c-0.117,-0.117 -0.349,-0.117 -0.466,-0.117l-0.582,0l-1.979,0.233l-0,2.329Zm0.466,4.54l2.095,-0.232c0.233,-0 0.349,-0 0.582,-0.117c0.233,0 0.35,-0.116 0.466,-0.233c0.116,-0.116 0.233,-0.233 0.349,-0.349c0.117,-0.116 0.117,-0.349 0.117,-0.582c-0,-0.233 -0.117,-0.349 -0.233,-0.582c-0.117,-0.117 -0.233,-0.233 -0.349,-0.35c-0.117,-0.116 -0.35,-0.116 -0.466,-0.116l-0.582,0l-2.096,0.233l0.117,2.328Z" style="fill-rule:nonzero;"/><path d="M144.132,282.362l2.677,-10.944c0,-0.117 0.117,-0.233 0.233,-0.233l2.445,-0.233c0.117,0 0.233,0 0.233,0.116l4.424,10.362l0,0.233c0,0.117 -0.116,0.117 -0.233,0.117l-2.095,0.233c-0.117,-0 -0.233,-0 -0.233,-0.117l-0.815,-2.096l-3.493,0.35l-0.466,2.212c0,0.116 -0.116,0.233 -0.233,0.233l-2.095,0.233c-0.117,-0 -0.233,-0 -0.233,-0.117c-0,-0.116 -0.116,-0.233 -0.116,-0.349Zm4.54,-7.801l-0.815,3.493l2.212,-0.233l-1.397,-3.26Z" style="fill-rule:nonzero;"/><path d="M159.151,281.43c-0.117,0 -0.117,0 -0.233,-0.116c-0,0 -0.117,-0.116 -0.117,-0.233l-0.931,-10.595c-0,-0.116 -0,-0.116 0.116,-0.233c0,-0.116 0.117,-0.116 0.233,-0.116l2.096,-0.233c0.116,0 0.233,0 0.233,0.117l4.773,6.287l-0.582,-6.52c0,-0.117 0,-0.117 0.117,-0.233c-0,-0.117 0.116,-0.117 0.232,-0.117l1.98,-0.116c0.116,0 0.116,0 0.232,0.116c0,0 0.117,0.117 0.117,0.233l0.931,10.595c0,0.117 0,0.117 -0.116,0.233c-0,0.116 -0.117,0.116 -0.233,0.116l-1.979,0.233c-0.117,0 -0.233,0 -0.233,-0.116l-4.89,-6.52l0.582,6.753c0,0.116 0,0.116 -0.116,0.233c-0,0.116 -0.117,0.116 -0.233,0.116l-1.979,0.116Z" style="fill-rule:nonzero;"/><path d="M176.149,279.568c-0.582,-0.233 -1.164,-0.699 -1.63,-1.165c-0.466,-0.465 -0.815,-1.047 -1.048,-1.746c-0.233,-0.699 -0.466,-1.397 -0.466,-2.096c-0.116,-0.815 0,-1.63 0.117,-2.328c0.116,-0.699 0.466,-1.397 0.815,-1.98c0.349,-0.582 0.931,-1.047 1.513,-1.397c0.583,-0.349 1.398,-0.582 2.212,-0.698c1.048,-0.117 1.98,-0 2.678,0.465c0.699,0.35 1.397,1.048 1.863,1.98l0,0.233c0,0.116 -0.116,0.116 -0.233,0.116l-1.979,0.699l-0.116,-0c-0,-0 -0.117,-0 -0.117,-0.117c-0.582,-0.815 -1.281,-1.164 -2.096,-1.048c-0.465,0 -0.814,0.233 -1.164,0.466c-0.349,0.233 -0.582,0.582 -0.698,0.931c-0.233,0.35 -0.35,0.815 -0.35,1.165c0,0.465 -0.116,0.815 0,1.28c0,0.35 0.117,0.815 0.233,1.165c0.117,0.349 0.35,0.698 0.466,1.048c0.233,0.349 0.466,0.582 0.815,0.698c0.349,0.233 0.698,0.233 1.164,0.233c0.582,-0 1.048,-0.233 1.397,-0.699c0.35,-0.465 0.466,-0.931 0.466,-1.513l-2.096,0.116c-0.233,0 -0.233,-0.116 -0.349,-0.233l-0.116,-1.28c-0,-0.117 -0,-0.117 0.116,-0.233c0,-0 0.116,-0.117 0.233,-0.117l4.191,-0.349c0.117,0 0.117,0 0.233,0.117c0.117,-0 0.117,0.116 0.117,0.232l0.465,5.472c0,0.117 0,0.117 -0.116,0.233c-0,0 -0.117,0.117 -0.233,0.117l-1.63,0.116c-0.116,0 -0.233,0 -0.349,-0.233l-0.117,-0.698c-0.465,0.815 -1.28,1.397 -2.328,1.397c-0.582,0.116 -1.281,-0 -1.863,-0.349Z" style="fill-rule:nonzero;"/><path d="M188.607,278.753c-0.233,-0 -0.233,-0.117 -0.35,-0.233l-0.931,-10.595c-0,-0.233 0.116,-0.233 0.233,-0.349l1.979,-0.117c0.116,0 0.116,0 0.233,0.117c0.116,-0 0.116,0.116 0.116,0.232l0.35,3.726l3.376,-4.191c-0,-0.117 0.116,-0.117 0.233,-0.117l2.678,-0.232c0.116,-0 0.233,-0 0.233,0.116l-0,0.349l-4.075,5.007l5.355,5.239c0.117,0.116 0.117,0.233 0.117,0.349c-0,0.116 -0.117,0.116 -0.233,0.233l-2.562,0.233c-0.116,-0 -0.116,-0 -0.232,-0.117l-3.959,-3.958l-0.466,0.582l0.35,3.493c-0,0.116 -0,0.116 -0.117,0.233c0,-0 -0.116,0.116 -0.233,0.116l-2.095,-0.116Z" style="fill-rule:nonzero;"/><path d="M211.426,273.397c-0.116,0.699 -0.349,1.397 -0.815,1.979c-0.349,0.582 -0.815,1.048 -1.513,1.397c-0.582,0.35 -1.397,0.583 -2.212,0.699c-0.932,0.116 -1.63,-0 -2.329,-0.233c-0.698,-0.233 -1.281,-0.582 -1.746,-1.048c-0.466,-0.465 -0.815,-1.048 -1.048,-1.746c-0.233,-0.699 -0.466,-1.397 -0.466,-2.212c-0.116,-0.815 0,-1.63 0.117,-2.329c0.116,-0.698 0.349,-1.397 0.815,-1.979c0.349,-0.582 0.815,-1.048 1.513,-1.397c0.582,-0.349 1.397,-0.582 2.212,-0.699c0.815,-0.116 1.63,0 2.329,0.233c0.698,0.233 1.28,0.582 1.746,1.048c0.466,0.466 0.815,1.048 1.164,1.746c0.233,0.699 0.466,1.397 0.583,2.329c-0.233,0.698 -0.233,1.513 -0.35,2.212Zm-6.52,-5.006c-0.349,0.232 -0.582,0.582 -0.698,0.931c-0.117,0.349 -0.233,0.699 -0.349,1.164l-0,1.281c-0,0.466 0.116,0.815 0.232,1.281c0.117,0.465 0.233,0.815 0.466,1.048c0.233,0.349 0.466,0.582 0.815,0.698c0.349,0.233 0.815,0.233 1.281,0.233c0.466,-0 0.931,-0.233 1.164,-0.466c0.349,-0.233 0.582,-0.582 0.699,-0.931c0.116,-0.349 0.232,-0.699 0.349,-1.164l-0,-1.281c-0,-0.466 -0.117,-0.815 -0.233,-1.281c-0.116,-0.466 -0.233,-0.815 -0.466,-1.048c-0.232,-0.349 -0.465,-0.582 -0.815,-0.698c-0.349,-0.233 -0.815,-0.233 -1.28,-0.233c-0.466,0.116 -0.932,0.233 -1.165,0.466Z" style="fill-rule:nonzero;"/><path d="M217.248,276.191c-0.233,0 -0.233,-0.116 -0.35,-0.233l-0.931,-10.594c-0,-0.233 0.116,-0.233 0.233,-0.35l1.979,-0.116c0.117,-0 0.117,-0 0.233,0.116c0.116,0 0.116,0.117 0.116,0.233l0.35,3.726l3.376,-4.192c0,-0.116 0.116,-0.116 0.233,-0.116l2.678,-0.233c0.116,0 0.233,0 0.233,0.117l-0,0.349l-4.075,5.006l5.355,5.239c0.117,0.117 0.117,0.233 0.117,0.35c-0,0.116 -0.117,0.116 -0.233,0.233l-2.562,0.232c-0.116,0 -0.116,0 -0.232,-0.116l-3.959,-3.959l-0.466,0.583l0.35,3.492c-0,0.117 -0,0.117 -0.117,0.233c0,0 -0.116,0.117 -0.233,0.117l-2.095,-0.117Z" style="fill-rule:nonzero;"/></g></g></g><path d="M396.196,335.336c-1.048,0 -2.096,-0.582 -2.561,-1.63c-4.192,-10.013 -16.65,-15.834 -27.012,-12.923c-0.698,0.233 -1.513,0.116 -2.212,-0.35c-0.698,-0.465 -1.164,-1.047 -1.28,-1.862c-0.699,-4.075 -3.26,-7.917 -7.102,-10.479c-3.842,-2.561 -8.383,-3.493 -12.458,-2.561c-1.514,0.349 -2.911,-0.582 -3.26,-2.096c-0.349,-1.513 0.582,-2.911 2.096,-3.26c5.472,-1.281 11.642,-0.116 16.765,3.26c4.308,2.794 7.335,6.869 8.849,11.294c12.457,-2.096 25.846,4.89 30.853,16.649c0.582,1.397 -0.117,3.027 -1.514,3.609c-0.466,0.233 -0.815,0.349 -1.164,0.349Z" style="fill:#ffc800;fill-rule:nonzero;"/><path d="M361.035,454.674l-0.349,-0c-1.514,-0.117 -2.562,-1.514 -2.445,-3.027c1.28,-11.643 10.478,-21.772 21.772,-24.683c-0.583,-8.383 3.26,-16.067 10.594,-21.073c8.15,-5.472 22.471,-6.52 29.689,0.233c1.048,1.048 1.165,2.794 0.117,3.842c-1.048,1.048 -2.795,1.164 -3.842,0.116c-4.192,-3.958 -15.252,-4.773 -22.82,0.233c-6.404,4.308 -9.314,10.944 -8.033,18.163c0.116,0.698 -0,1.513 -0.466,2.095c-0.466,0.583 -1.048,1.048 -1.863,1.165c-10.129,1.513 -18.628,10.245 -19.793,20.374c0.117,1.514 -1.164,2.562 -2.561,2.562Z" style="fill:#74ccd6;fill-rule:nonzero;"/><path d="M286.638,410.432c-0.466,-0 -0.815,-0.117 -1.281,-0.35c-1.397,-0.698 -1.862,-2.328 -1.164,-3.725c0.932,-1.747 0.699,-4.192 -0.582,-6.171c-1.048,-1.746 -2.678,-2.911 -4.308,-3.144l-0.931,0l-0.699,-0.116c-1.397,-0.233 -2.328,-1.514 -2.212,-2.911c0,-0.116 0,-0.233 0.117,-0.349l-0,-0.233c1.397,-8.965 -3.61,-18.861 -12.342,-24.333c-7.8,-4.774 -18.046,-6.287 -29.106,-4.191c-1.514,0.232 -2.911,-0.699 -3.26,-2.213c-0.233,-1.513 0.698,-2.91 2.212,-3.259c12.341,-2.329 24.1,-0.583 32.949,5.006c9.779,6.054 15.717,17.115 15.135,27.477c2.794,0.815 5.239,2.677 6.986,5.472c2.328,3.725 2.678,8.033 0.931,11.642c-0.466,0.815 -1.513,1.398 -2.445,1.398Z" style="fill:#e96717;fill-rule:nonzero;"/><path d="M329.833,438.49l-0.35,0c-1.513,-0.232 -2.561,-1.63 -2.328,-3.027c0.815,-6.636 -1.863,-13.622 -6.869,-17.929c-5.007,-4.308 -12.342,-5.938 -18.745,-4.192c-1.514,0.466 -3.027,-0.465 -3.377,-1.863c-0.465,-1.513 0.466,-3.027 1.863,-3.376c8.267,-2.329 17.348,-0.233 23.868,5.356c6.52,5.588 9.78,14.32 8.732,22.819c-0.233,1.281 -1.397,2.212 -2.794,2.212Z" style="fill:#034ea1;fill-rule:nonzero;"/><path d="M497.604,413.808c-1.048,-0 -1.979,-0.582 -2.445,-1.514c-1.048,-2.095 -3.144,-3.609 -5.821,-4.307c-2.562,-0.699 -5.24,-0.35 -7.103,0.931c-0.815,0.582 -1.862,0.582 -2.677,0.233l-0.35,-0.233c-0.931,-0.466 -1.513,-1.281 -1.513,-2.329c-0.349,-5.239 -3.26,-10.711 -7.801,-14.553c-4.191,-3.493 -9.78,-5.821 -16.067,-6.753c-4.773,-0.698 -11.642,-0.815 -17.114,2.795c-1.281,0.815 -3.028,0.465 -3.843,-0.815c-0.815,-1.281 -0.465,-3.028 0.815,-3.843c6.87,-4.54 15.252,-4.54 20.957,-3.725c7.335,1.048 13.855,3.842 18.861,7.917c4.774,3.958 8.034,9.314 9.315,14.903c2.561,-0.815 5.355,-0.815 8.149,-0.117c4.075,1.048 7.452,3.609 9.315,7.102c0.698,1.397 0.233,3.027 -1.165,3.726c-0.582,0.466 -1.047,0.582 -1.513,0.582Z" style="fill:#7580bb;fill-rule:nonzero;"/><path d="M505.521,426.149l-0.349,0c-1.514,-0.233 -2.562,-1.513 -2.445,-3.027c1.746,-14.67 13.971,-27.36 28.524,-29.689c1.514,-0.233 2.911,0.815 3.144,2.329c0.233,1.513 -0.815,2.91 -2.329,3.143c-12.225,1.98 -22.47,12.691 -23.984,24.916c0,1.28 -1.28,2.328 -2.561,2.328Z" style="fill:#ffc800;fill-rule:nonzero;"/><path d="M547.318,303.435c-0.931,0 -1.979,-0.466 -2.445,-1.397c-0.698,-1.281 -0.233,-3.027 1.048,-3.726c9.78,-5.355 18.046,-9.547 24.799,-12.807c8.616,-4.075 20.491,-9.663 25.963,-1.397c0.932,1.514 1.514,2.911 1.863,3.959c0.582,1.746 0.815,2.328 2.329,2.91c4.191,1.63 11.06,-2.561 18.977,-7.451c4.89,-3.027 10.479,-6.403 16.649,-9.198c9.198,-4.191 15.485,-3.376 18.745,2.445c0.699,1.165 0.931,2.562 1.281,3.959c0.233,1.164 0.582,2.445 1.048,3.26c0.814,1.513 2.095,2.678 8.499,-0.233c6.869,-3.144 11.642,-5.938 24.566,-12.341c7.8,-3.842 15.135,-7.452 20.491,-10.129c1.397,-0.699 3.027,-0.117 3.726,1.28c0.698,1.397 0.116,3.027 -1.281,3.726c-5.356,2.561 -12.691,6.287 -20.491,10.013c-13.04,6.403 -17.697,9.197 -24.683,12.457c-3.143,1.397 -11.526,5.24 -15.601,-1.979c-0.815,-1.513 -1.281,-3.26 -1.63,-4.773c-0.233,-0.932 -0.466,-1.98 -0.699,-2.445c-0.698,-1.165 -2.445,-4.308 -11.642,-0.117c-5.822,2.678 -11.177,5.938 -15.951,8.849c-9.547,5.821 -17.115,10.478 -23.867,7.917c-3.842,-1.514 -4.774,-4.075 -5.589,-6.171c-0.349,-0.931 -0.698,-1.863 -1.28,-2.794c-2.562,-3.959 -10.479,-0.699 -18.978,3.376c-6.636,3.144 -14.786,7.335 -24.45,12.574c-0.582,0.117 -0.931,0.233 -1.397,0.233Z" style="fill:#74ccd6;fill-rule:nonzero;"/><g><path d="M468.381,322.296c-1.514,0 -2.678,-1.164 -2.795,-2.677c0,-1.514 1.165,-2.795 2.678,-2.795c10.712,-0.116 29.223,-8.965 36.325,-15.717c0.583,-0.466 1.281,-0.815 1.98,-0.815c0.116,-0 12.341,0.232 21.189,-1.863c2.213,-0.582 5.822,-2.096 5.472,-6.869c-0.116,-1.514 -1.513,-3.959 -4.657,-4.192c-3.376,-0.349 -5.006,-0.116 -6.985,0.233l-0.582,0.117c-1.514,0.232 -2.911,-0.815 -3.144,-2.329c-0.233,-1.514 0.815,-2.911 2.329,-3.144l0.582,-0.116c2.095,-0.233 4.191,-0.582 8.266,-0.233c5.821,0.582 9.314,5.123 9.664,9.314c0.465,6.287 -3.26,11.061 -9.664,12.574c-8.033,1.863 -18.162,2.096 -21.539,1.98c-8.266,7.567 -27.36,16.416 -39.119,16.532Z" style="fill:#034ea1;fill-rule:nonzero;"/><path d="M517.047,281.547c-1.397,-0 -2.561,-1.048 -2.794,-2.562c-0.233,-2.91 -2.445,-6.752 -7.684,-9.081c-3.027,-1.281 -6.171,-1.746 -9.664,-1.164c-1.513,0.233 -2.91,-0.815 -3.143,-2.329c-0.233,-1.513 0.815,-2.91 2.328,-3.143c4.425,-0.699 8.616,-0.117 12.691,1.63c6.287,2.678 10.478,7.917 10.944,13.622c0.116,1.513 -0.931,2.794 -2.445,3.027l-0.233,-0Z" style="fill:#74ccd6;fill-rule:nonzero;"/><path d="M475.25,305.298c-3.959,-0 -8.616,-1.281 -9.78,-1.746c-1.397,-0.466 -2.212,-2.096 -1.746,-3.493c0.465,-1.397 2.095,-2.212 3.492,-1.747c2.795,0.932 6.87,1.514 8.732,1.397c0,-0.931 -0.232,-2.677 -1.164,-5.937c-0.233,-0.815 -0.116,-1.747 0.466,-2.445c0.466,-0.699 1.281,-1.048 2.212,-1.048c3.027,-0 5.938,-0.932 6.753,-1.514c0.233,-0.815 -0.117,-3.143 -3.144,-7.335c-0.582,-0.698 -0.698,-1.746 -0.349,-2.561c-0,0 1.746,-4.541 1.979,-7.801c0.117,-1.513 1.397,-2.677 2.911,-2.561c1.513,0.116 2.678,1.397 2.561,2.911c-0.116,2.91 -1.164,6.287 -1.746,8.15c3.376,5.006 4.191,9.081 2.561,12.108c-1.164,2.329 -4.89,3.493 -8.15,4.075c1.165,5.356 0.35,7.218 -0.698,8.266c-0.117,0.117 -0.117,0.117 -0.233,0.233c-0.931,0.699 -2.794,1.048 -4.657,1.048Z" style="fill:#74ccd6;fill-rule:nonzero;"/><path d="M488.29,265.829c-0.466,0 -0.932,-0.116 -1.397,-0.349c-1.281,-0.815 -1.747,-2.445 -0.932,-3.726c3.377,-5.588 4.541,-13.04 2.445,-15.252c-2.445,-2.677 -13.855,-2.328 -17.348,-1.28c-1.513,0.465 -3.027,-0.35 -3.376,-1.863c-0.466,-1.514 0.349,-3.027 1.863,-3.377c2.678,-0.815 17.813,-2.677 22.936,2.911c4.774,5.239 1.863,15.951 -1.746,21.888c-0.582,0.583 -1.514,1.048 -2.445,1.048Z" style="fill:#7580bb;fill-rule:nonzero;"/><path d="M411.099,264.898c-0.233,-0 -0.583,-0 -0.815,-0.117c-1.514,-0.465 -2.329,-1.979 -1.863,-3.376c1.63,-5.239 4.657,-10.013 5.938,-11.876c-0.117,-4.657 1.397,-14.087 6.636,-17.231c4.89,-2.91 15.019,0.117 19.094,4.192c6.403,0.582 11.293,1.28 14.67,2.212c1.513,0.349 2.328,1.863 1.979,3.376c-0.349,1.514 -1.863,2.329 -3.376,1.979c-3.26,-0.815 -8.383,-1.513 -14.903,-2.095c-0.815,-0.117 -1.63,-0.582 -2.096,-1.281c-1.63,-2.561 -10.129,-5.006 -12.574,-3.609c-2.678,1.513 -4.308,9.198 -3.958,13.04c0.116,0.698 -0.117,1.397 -0.583,1.979c0,-0 -3.958,5.239 -5.704,11.06c-0.117,1.048 -1.165,1.747 -2.445,1.747Z" style="fill:#ffc800;fill-rule:nonzero;"/><path d="M443.232,337.083c-1.513,-0 -3.143,-0.35 -4.889,-1.281c-2.329,-1.164 -5.007,-3.842 -5.705,-7.568c-0.35,-2.212 -0.117,-5.588 3.027,-9.081c0.116,-0.117 0.116,-0.117 0.233,-0.233l1.979,-1.746c1.164,-1.048 2.91,-0.815 3.842,0.232c1.048,1.165 0.815,2.911 -0.233,3.842l-1.863,1.63c-1.28,1.398 -1.863,2.911 -1.63,4.308c0.233,1.63 1.63,3.027 2.794,3.609c3.028,1.514 5.24,0.233 8.965,-3.027c2.562,-2.212 9.664,-8.499 9.664,-8.499l3.609,4.192c0,-0 -7.102,6.17 -9.663,8.499c-2.096,2.095 -5.705,5.123 -10.13,5.123Z" style="fill:#e96717;fill-rule:nonzero;"/><path d="M415.174,330.795c-1.165,0 -2.213,-0.232 -3.377,-0.582c-3.493,-1.164 -6.054,-3.842 -6.985,-7.218c-0.815,-3.144 -0.117,-6.404 2.095,-8.965c2.445,-2.794 4.424,-4.89 4.541,-5.006c1.048,-1.165 2.794,-1.165 3.842,-0.117c1.164,1.048 1.164,2.794 0.116,3.842c0,0 -1.979,2.096 -4.424,4.89c-1.281,1.514 -1.164,2.911 -0.931,3.842c0.465,1.514 1.746,2.911 3.376,3.377c3.027,1.048 5.821,-1.165 7.568,-3.144l0.116,-0.116l8.383,-8.034c1.048,-1.048 2.794,-1.048 3.842,0.117c1.048,1.048 1.048,2.794 -0.116,3.842l-8.267,8.033c-2.91,3.493 -6.287,5.239 -9.779,5.239Z" style="fill:#74ccd6;fill-rule:nonzero;"/><path d="M432.288,277.472c-0.233,-0 -0.582,-0 -0.815,-0.116c-1.397,-0.466 -2.212,-1.98 -1.746,-3.493l1.164,-3.61c0.466,-1.397 1.979,-2.212 3.493,-1.746c1.397,0.466 2.212,1.979 1.746,3.493l-1.164,3.609c-0.349,1.164 -1.513,1.863 -2.678,1.863Z" style="fill:#74ccd6;fill-rule:nonzero;"/><path d="M460.696,281.43c-0.232,0 -0.465,0 -0.815,-0.116c-1.513,-0.466 -2.328,-1.979 -1.862,-3.376l1.048,-3.493c0.465,-1.514 1.979,-2.329 3.376,-1.863c1.513,0.466 2.328,1.979 1.863,3.376l-1.048,3.493c-0.233,1.164 -1.397,1.979 -2.562,1.979Z" style="fill:#e96717;fill-rule:nonzero;"/><path d="M441.02,289.697c-0.698,-0 -1.513,-0.35 -1.979,-0.815l-2.561,-2.678c-0.815,-0.815 -0.932,-2.096 -0.466,-3.144c0.582,-1.047 1.63,-1.63 2.794,-1.513l8.383,1.164c1.281,0.233 2.328,1.281 2.328,2.562c0.117,1.28 -0.814,2.445 -2.095,2.794l-5.822,1.513c-0.116,0.117 -0.349,0.117 -0.582,0.117Z" style="fill:#034ea1;fill-rule:nonzero;"/><path d="M442.068,303.901l-0.233,-0c-0.698,-0 -15.368,-1.164 -24.682,-7.335c-2.445,0.349 -6.753,0.699 -9.198,-1.164c-2.445,-1.863 -1.746,-5.007 -0.582,-7.801c-4.89,-1.863 -5.589,-3.26 -5.938,-3.958c-0.466,-0.932 -1.513,-3.144 4.308,-11.876c0.815,-1.281 2.561,-1.63 3.842,-0.815c1.281,0.815 1.63,2.561 0.815,3.842c-1.63,2.445 -3.027,5.123 -3.493,6.636c1.164,0.583 3.26,1.398 5.356,1.98c0.815,0.233 1.513,0.815 1.863,1.63c0.349,0.815 0.233,1.746 -0.233,2.445c-0.815,1.28 -1.514,2.794 -1.747,3.725c1.165,0.233 3.377,0.117 5.356,-0.349c0.815,-0.116 1.514,0 2.212,0.466c8.034,5.821 22.703,6.985 22.82,6.985c1.513,0.117 2.678,1.397 2.561,2.911c-0.349,1.514 -1.513,2.678 -3.027,2.678Z" style="fill:#034ea1;fill-rule:nonzero;"/><path d="M525.546,278.636c-1.164,0 -2.212,-0.698 -2.561,-1.863c-0.466,-1.397 0.349,-3.027 1.746,-3.492c0,-0 0.582,-0.35 0.582,-0.815c-0.116,-0.583 -1.047,-0.583 -1.28,-0.583c-1.048,0 -2.096,-0.698 -2.445,-1.63c-0.466,-1.047 -0.233,-2.212 0.582,-2.91c0.815,-0.932 1.164,-1.747 0.931,-2.794c-0.349,-1.63 -1.746,-3.028 -2.91,-3.61c-0.699,-0.349 -2.329,-0.931 -3.842,-0.465c-0.815,0.232 -1.63,0.815 -2.329,1.746c-0.931,1.281 -2.678,1.514 -3.842,0.582c-1.281,-0.931 -1.514,-2.678 -0.582,-3.842c1.397,-1.863 3.143,-3.143 5.239,-3.842c3.26,-0.931 6.171,0.116 7.684,0.815c2.445,1.164 5.356,3.958 6.054,7.568c0.233,1.397 0.233,2.794 -0.232,4.191c1.164,0.815 2.095,1.979 2.445,3.726c0.815,3.725 -1.98,6.403 -4.192,7.218l-1.048,0Z" style="fill:#7580bb;fill-rule:nonzero;"/></g><g><path d="M705.077,298.662c0.931,-1.63 1.863,-3.26 2.794,-4.89c0.815,-1.397 2.561,-1.863 3.958,-1.165c1.98,1.048 3.843,2.213 5.822,3.377c1.281,0.698 2.678,1.513 3.958,2.212c1.397,0.815 1.98,2.561 1.165,3.958c-0.35,0.699 -1.048,1.165 -1.747,1.398c-4.308,1.164 -8.499,2.328 -12.807,3.492c-0.815,0.233 -1.746,0.466 -2.561,0.699c-2.096,0.582 -4.192,-1.397 -3.609,-3.493c0.116,-0.349 0.232,-0.582 0.349,-0.931c0.931,-1.397 1.746,-3.027 2.678,-4.657Z" style="fill:#034ea1;fill-rule:nonzero;"/><path d="M690.523,305.997c-1.63,-0.932 -3.26,-1.863 -4.89,-2.795c-1.397,-0.815 -1.862,-2.561 -1.164,-3.958c1.048,-1.979 2.212,-3.842 3.377,-5.822c0.698,-1.28 1.513,-2.677 2.212,-3.958c0.815,-1.397 2.561,-1.979 3.958,-1.164c0.699,0.349 1.164,1.047 1.397,1.746c1.165,4.308 2.329,8.499 3.493,12.807c0.233,0.815 0.466,1.746 0.699,2.561c0.582,2.096 -1.397,4.192 -3.493,3.61c-0.349,-0.117 -0.582,-0.233 -0.932,-0.35c-1.513,-0.815 -3.143,-1.746 -4.657,-2.677Z" style="fill:#74ccd6;fill-rule:nonzero;"/><path d="M712.644,313.331c1.63,0.932 3.26,1.863 4.89,2.795c1.398,0.815 1.863,2.561 1.165,3.958c-1.048,1.979 -2.212,3.842 -3.377,5.822c-0.698,1.28 -1.513,2.677 -2.212,3.958c-0.815,1.397 -2.561,1.979 -3.958,1.164c-0.699,-0.349 -1.165,-1.047 -1.397,-1.746c-1.165,-4.308 -2.329,-8.499 -3.493,-12.807c-0.233,-0.815 -0.466,-1.746 -0.699,-2.561c-0.582,-2.096 1.397,-4.192 3.493,-3.61c0.349,0.117 0.582,0.233 0.931,0.35c1.514,0.931 3.027,1.746 4.657,2.677Z" style="fill:#7580bb;fill-rule:nonzero;"/><path d="M697.742,320.783c-0.932,1.63 -1.863,3.26 -2.794,4.89c-0.815,1.397 -2.562,1.863 -3.959,1.164c-1.979,-1.048 -3.842,-2.212 -5.821,-3.376c-1.281,-0.699 -2.678,-1.514 -3.959,-2.213c-1.397,-0.815 -1.979,-2.561 -1.164,-3.958c0.349,-0.699 1.048,-1.164 1.746,-1.397c4.308,-1.164 8.499,-2.329 12.807,-3.493c0.815,-0.233 1.747,-0.466 2.562,-0.699c2.095,-0.582 4.191,1.398 3.609,3.493c-0.117,0.35 -0.233,0.582 -0.349,0.932c-0.932,1.397 -1.747,3.027 -2.678,4.657Z" style="fill:#e96717;fill-rule:nonzero;"/></g><g><path d="M241.464,310.654c0.815,-1.863 1.747,-3.61 2.562,-5.472c0.698,-1.514 2.561,-2.213 4.075,-1.514c2.212,0.931 4.308,1.979 6.403,3.027c1.514,0.699 2.911,1.397 4.425,2.096c1.63,0.815 2.328,2.445 1.63,4.075c-0.35,0.815 -0.932,1.397 -1.747,1.63c-4.424,1.63 -8.848,3.26 -13.273,4.773c-0.931,0.35 -1.746,0.699 -2.677,0.932c-2.213,0.815 -4.541,-1.165 -4.192,-3.377c0,-0.349 0.233,-0.698 0.35,-1.048c0.814,-1.63 1.629,-3.376 2.444,-5.122Z" style="fill:#e96717;fill-rule:nonzero;"/><path d="M226.562,319.619c-1.863,-0.815 -3.609,-1.747 -5.472,-2.562c-1.514,-0.698 -2.212,-2.561 -1.514,-4.075c0.932,-2.212 1.979,-4.308 3.027,-6.403c0.699,-1.514 1.397,-2.911 2.096,-4.425c0.815,-1.63 2.445,-2.328 4.075,-1.63c0.815,0.35 1.397,0.932 1.63,1.747c1.63,4.424 3.26,8.848 4.773,13.273c0.35,0.931 0.699,1.746 0.932,2.677c0.815,2.212 -1.164,4.541 -3.377,4.192c-0.349,-0 -0.698,-0.233 -1.047,-0.35c-1.63,-0.698 -3.377,-1.513 -5.123,-2.444Z" style="fill:#74ccd6;fill-rule:nonzero;"/><path d="M250.662,325.556c1.863,0.815 3.609,1.747 5.472,2.562c1.514,0.698 2.212,2.561 1.514,4.075c-0.932,2.212 -1.979,4.307 -3.027,6.403c-0.699,1.514 -1.397,2.911 -2.096,4.424c-0.815,1.63 -2.445,2.329 -4.075,1.63c-0.815,-0.349 -1.397,-0.931 -1.63,-1.746c-1.63,-4.424 -3.26,-8.849 -4.773,-13.273c-0.35,-0.931 -0.699,-1.746 -0.932,-2.678c-0.815,-2.212 1.164,-4.54 3.377,-4.191c0.349,0 0.698,0.233 1.047,0.349c1.63,0.699 3.377,1.63 5.123,2.445Z" style="fill:#034ea1;fill-rule:nonzero;"/><path d="M235.527,334.638c-0.815,1.862 -1.747,3.609 -2.562,5.472c-0.698,1.513 -2.561,2.212 -4.075,1.513c-2.212,-0.931 -4.307,-1.979 -6.403,-3.027c-1.514,-0.698 -2.911,-1.397 -4.424,-2.096c-1.63,-0.815 -2.329,-2.445 -1.63,-4.075c0.349,-0.815 0.931,-1.397 1.746,-1.63c4.424,-1.629 8.849,-3.259 13.273,-4.773c0.931,-0.349 1.746,-0.699 2.678,-0.931c2.212,-0.815 4.54,1.164 4.191,3.376c-0,0.349 -0.233,0.699 -0.349,1.048c-0.815,1.63 -1.63,3.376 -2.445,5.123Z" style="fill:#ffc800;fill-rule:nonzero;"/></g><path id="XMLID_136_" d="M601.806,215.184c1.397,2.794 -1.979,7.218 -7.335,9.779c-5.472,2.562 -10.944,2.445 -12.225,-0.349c-1.397,-2.794 1.98,-7.218 7.335,-9.78c5.472,-2.678 10.944,-2.445 12.225,0.35Z" style="fill:#ffc800;fill-rule:nonzero;"/><path id="XMLID_135_" d="M356.029,340.808c1.397,2.794 -1.98,7.219 -7.335,9.78c-5.472,2.561 -10.944,2.445 -12.225,-0.349c-1.397,-2.794 1.979,-7.219 7.335,-9.78c5.355,-2.678 10.944,-2.445 12.225,0.349Z" style="fill:#ffc800;fill-rule:nonzero;"/><path id="XMLID_134_" d="M127.715,301.689c1.165,2.328 -2.561,6.403 -8.266,9.197c-5.705,2.795 -11.177,3.144 -12.341,0.815c-1.165,-2.328 2.561,-6.403 8.266,-9.197c5.705,-2.795 11.177,-3.144 12.341,-0.815Z" style="fill:#034ea1;fill-rule:nonzero;"/><path id="XMLID_133_" d="M505.404,368.751c1.514,3.027 -2.095,7.8 -8.033,10.711c-5.938,2.794 -11.876,2.678 -13.389,-0.349c-1.514,-3.027 2.096,-7.801 8.033,-10.712c5.938,-2.91 11.876,-2.794 13.389,0.35Z" style="fill:#e96717;fill-rule:nonzero;"/><path id="XMLID_132_" d="M345.434,339.993c-0,1.164 -0.932,2.096 -2.096,2.096c-1.164,-0 -2.096,-0.932 -2.096,-2.096c0,-1.164 0.932,-2.095 2.096,-2.095c1.164,-0.117 2.096,0.931 2.096,2.095Z" style="fill:#3853a3;fill-rule:nonzero;"/><path id="XMLID_131_" d="M216.2,252.091c-0,1.746 -1.397,3.143 -3.144,3.143c-1.746,0 -3.143,-1.397 -3.143,-3.143c-0,-1.747 1.397,-3.144 3.143,-3.144c1.747,0 3.144,1.397 3.144,3.144Z" style="fill:#e96717;fill-rule:nonzero;"/><path id="XMLID_130_" d="M546.736,259.542c0,2.096 -1.746,3.842 -3.842,3.842c-2.096,0 -3.842,-1.746 -3.842,-3.842c-0,-2.096 1.746,-3.842 3.842,-3.842c2.096,-0.116 3.842,1.63 3.842,3.842Z" style="fill:#ffc800;fill-rule:nonzero;"/><path id="XMLID_129_" d="M131.325,312.167c-0,1.281 -1.048,2.445 -2.445,2.445c-1.281,0 -2.445,-1.048 -2.445,-2.445c-0,-1.281 1.047,-2.445 2.445,-2.445c1.397,0.117 2.445,1.164 2.445,2.445Z" style="fill:#ffc800;fill-rule:nonzero;"/><path id="XMLID_128_" d="M587.02,217.279c-0,2.096 -1.747,3.842 -3.842,3.842c-2.096,0 -3.842,-1.746 -3.842,-3.842c-0,-2.095 1.746,-3.842 3.842,-3.842c2.095,0 3.842,1.747 3.842,3.842Z" style="fill:#7580bb;fill-rule:nonzero;"/><path id="XMLID_127_" d="M510.76,381.441c0,1.979 -1.63,3.609 -3.609,3.609c-1.979,0 -3.609,-1.63 -3.609,-3.609c-0,-1.979 1.63,-3.609 3.609,-3.609c1.979,-0 3.609,1.514 3.609,3.609Z" style="fill:#3853a3;fill-rule:nonzero;"/><path id="XMLID_126_" d="M284.892,367.819c-0.932,1.98 -3.26,2.678 -5.239,1.747c-1.98,-0.932 -2.678,-3.26 -1.747,-5.24c0.932,-1.979 3.26,-2.677 5.239,-1.746c1.863,0.931 2.678,3.26 1.747,5.239Z" style="fill:#ffc800;fill-rule:nonzero;"/><path id="XMLID_125_" d="M310.855,433.135c-0,1.164 -0.931,2.212 -2.212,2.212c-1.164,-0 -2.212,-0.931 -2.212,-2.212c-0,-1.164 0.931,-2.212 2.212,-2.212c1.281,-0 2.212,0.931 2.212,2.212Z" style="fill:#ffc800;fill-rule:nonzero;"/><path id="XMLID_124_" d="M362.341,415.968l-4.565,5.44l5.44,4.566l4.565,-5.441l-5.44,-4.565Z" style="fill:#7580bb;"/><path id="XMLID_123_" d="M192.194,254.26l-4.565,5.44l5.44,4.565l4.565,-5.44l-5.44,-4.565Z" style="fill:#ffc800;"/><path id="XMLID_122_" d="M305.732,443.497c0,2.095 -1.746,3.842 -3.842,3.842c-2.096,-0 -3.842,-1.747 -3.842,-3.842c-0,-2.096 1.746,-3.842 3.842,-3.842c2.096,-0 3.842,1.746 3.842,3.842Z" style="fill:#3853a3;fill-rule:nonzero;"/><path id="XMLID_121_" d="M396.196,309.955c-0,1.63 -1.281,2.911 -2.911,2.911c-1.63,-0 -2.91,-1.281 -2.91,-2.911c-0,-1.63 1.28,-2.911 2.91,-2.911c1.63,0 2.911,1.281 2.911,2.911Z" style="fill:#3853a3;fill-rule:nonzero;"/><path id="XMLID_120_" d="M521.122,366.539c0.815,0.815 0.932,2.212 0.117,3.027c-0.815,0.815 -2.213,0.931 -3.028,0.116c-0.815,-0.815 -0.931,-2.212 -0.116,-3.027c0.815,-0.931 2.212,-0.931 3.027,-0.116Z" style="fill:#70cbd8;fill-rule:nonzero;"/><path id="XMLID_119_" d="M338.914,251.742c1.048,0.698 1.281,1.979 0.582,3.027c-0.699,1.048 -1.979,1.28 -3.027,0.582c-1.048,-0.699 -1.281,-1.979 -0.582,-3.027c0.815,-0.932 2.095,-1.165 3.027,-0.582Z" style="fill:#7580bb;fill-rule:nonzero;"/><path id="XMLID_118_" d="M202.345,258.844c0.815,0.815 0.931,2.212 0.116,3.027c-0.815,0.815 -2.212,0.931 -3.027,0.116c-0.815,-0.815 -0.931,-2.212 -0.116,-3.027c0.815,-0.931 2.212,-0.931 3.027,-0.116Z" style="fill:#034ea1;fill-rule:nonzero;"/><path id="XMLID_117_" d="M260.326,400.302c-0,1.165 -0.932,2.096 -2.096,2.096c-1.164,0 -2.096,-0.931 -2.096,-2.096c0,-1.164 0.932,-2.095 2.096,-2.095c1.164,-0 2.096,0.931 2.096,2.095Z" style="fill:#74ccd6;fill-rule:nonzero;"/><path id="XMLID_116_" d="M465.703,442.216c-0,2.911 -2.445,5.356 -5.356,5.356c-2.91,-0 -5.355,-2.445 -5.355,-5.356c-0,-2.911 2.445,-5.356 5.355,-5.356c2.911,0 5.356,2.445 5.356,5.356Z" style="fill:#034ea1;fill-rule:nonzero;"/><path id="XMLID_115_" d="M323.895,446.175c-0,1.164 -0.932,2.095 -2.096,2.095c-1.164,0 -2.096,-0.931 -2.096,-2.095c0,-1.165 0.932,-2.096 2.096,-2.096c1.164,-0.116 2.096,0.931 2.096,2.096Z" style="fill:#70cbd8;fill-rule:nonzero;"/><path id="XMLID_114_" d="M317.142,316.242c0,2.445 -1.979,4.424 -4.424,4.424c-2.445,0 -4.424,-1.979 -4.424,-4.424c-0,-2.445 1.979,-4.424 4.424,-4.424c2.445,-0 4.424,1.979 4.424,4.424Z" style="fill:#034ea1;fill-rule:nonzero;"/><path id="XMLID_113_" d="M467.915,428.711c-0,1.862 -1.514,3.376 -3.376,3.376c-1.863,-0 -3.377,-1.514 -3.377,-3.376c0,-1.863 1.514,-3.377 3.377,-3.377c1.862,0.117 3.376,1.63 3.376,3.377Z" style="fill:#e96717;fill-rule:nonzero;"/><path id="XMLID_112_" d="M349.838,251.502l-2.72,5.539l5.539,2.72l2.72,-5.539l-5.539,-2.72Z" style="fill:#74ccd6;"/><path id="XMLID_111_" d="M395.56,297.355l-2.72,5.539l5.539,2.72l2.72,-5.539l-5.539,-2.72Z" style="fill:#e96717;"/><path id="XMLID_108_" d="M395.614,443.031c1.513,0.699 3.376,0.815 5.006,0.233c0.117,-0 0.233,-0.116 0.349,-0.116c3.144,-1.398 4.658,-5.007 3.377,-8.15c-1.281,-3.377 -5.007,-5.007 -8.266,-3.842c-3.377,1.28 -5.007,5.006 -3.843,8.266c0.583,1.513 1.747,2.794 3.377,3.609Zm1.746,-8.266c1.281,-0.466 2.794,0.233 3.26,1.513c0.466,1.281 -0.116,2.678 -1.281,3.144l-0.116,0.116c-0.582,0.233 -1.281,0.233 -1.863,-0.116c-0.582,-0.233 -1.048,-0.815 -1.28,-1.397c-0.583,-1.281 -0,-2.678 1.28,-3.26Z" style="fill:#ffc800;fill-rule:nonzero;"/><path id="XMLID_105_" d="M152.747,307.277c1.63,0.699 3.376,0.815 5.006,0.233c0.117,0 0.233,-0.116 0.35,-0.116c3.143,-1.397 4.657,-5.007 3.376,-8.15c-1.281,-3.377 -5.006,-5.007 -8.266,-3.842c-3.377,1.28 -5.007,5.006 -3.842,8.266c0.582,1.63 1.746,2.911 3.376,3.609Zm1.747,-8.15c1.28,-0.465 2.794,0.233 3.259,1.514c0.466,1.281 -0.116,2.678 -1.28,3.143l-0.117,0.117c-0.582,0.233 -1.28,0.233 -1.862,-0.117c-0.583,-0.232 -1.048,-0.815 -1.281,-1.397c-0.582,-1.28 -0,-2.678 1.281,-3.26Z" style="fill:#74ccd6;fill-rule:nonzero;"/><g id="XMLID_102_"><path id="XMLID_104_" d="M387.579,396.629l-2.22,-3.961l-23.26,13.032l2.22,3.961l23.26,-13.032Z" style="fill:#e9613e;"/><path id="XMLID_103_" d="M364.307,409.61l-2.219,-3.961l-23.26,13.032l2.22,3.961l23.259,-13.032Z" style="fill:#74ccd6;"/></g><g id="XMLID_89_"><g id="XMLID_93_"><path id="XMLID_96_" d="M683.188,239.051l-5.355,-1.63l-1.747,5.356l5.472,1.746l1.63,-5.472Z" style="fill:#034ea1;fill-rule:nonzero;"/><path id="XMLID_95_" d="M670.697,241.235l-1.642,5.342l5.341,1.642l1.643,-5.341l-5.342,-1.643Z" style="fill:#034ea1;"/><path id="XMLID_94_" d="M663.598,244.947l-1.639,5.342l5.342,1.64l1.64,-5.343l-5.343,-1.639Z" style="fill:#034ea1;"/></g><g id="XMLID_90_"><path id="XMLID_92_" d="M661.999,250.344l-5.356,-1.746l-1.63,5.472l5.356,1.63l1.63,-5.356Z" style="fill:#034ea1;fill-rule:nonzero;"/><path id="XMLID_91_" d="M642.458,256.071l-1.639,5.343l5.342,1.64l1.64,-5.343l-5.343,-1.64Z" style="fill:#034ea1;"/></g></g><path d="M303.404,306.812l9.663,8.499l-13.855,8.732l4.192,-17.231Z" style="fill:#ffc800;fill-rule:nonzero;"/></g></svg>